<?xml version="1.0" encoding="UTF-8"?>
<svg xmlns="http://www.w3.org/2000/svg" xmlns:xlink="http://www.w3.org/1999/xlink" width="20" height="20" viewBox="0 0 20 20">
<path fill="none" stroke-width="2.42806" stroke-linecap="round" stroke-linejoin="round" stroke="rgb(100%, 100%, 100%)" stroke-opacity="1" stroke-miterlimit="4" d="M 9.375 1.212891 L 20.625 1.212891 C 22.429688 1.212891 23.894531 2.677734 23.894531 4.482422 L 23.894531 25.517578 C 23.894531 27.322266 22.429688 28.787109 20.625 28.787109 L 9.375 28.787109 C 7.570312 28.787109 6.105469 27.322266 6.105469 25.517578 L 6.105469 4.482422 C 6.105469 2.677734 7.570312 1.212891 9.375 1.212891 Z M 9.375 1.212891 " transform="matrix(0.666667, 0, 0, 0.666667, 0, 0)"/>
<path fill="none" stroke-width="30.353001" stroke-linecap="round" stroke-linejoin="round" stroke="rgb(100%, 100%, 100%)" stroke-opacity="1" stroke-miterlimit="0" d="M -291.016682 -158.916898 L -389.168437 -215.537276 L -291.016682 -272.157654 Z M -291.016682 -158.916898 " transform="matrix(0, 0.0533294, -0.0533294, 0, -1.494475, 24.117404)"/>
<path fill="none" stroke-width="30.353001" stroke-linecap="round" stroke-linejoin="round" stroke="rgb(100%, 100%, 100%)" stroke-opacity="1" stroke-miterlimit="0" d="M -291.016831 -158.916898 L -389.168586 -215.537276 L -291.016831 -272.157654 Z M -291.016831 -158.916898 " transform="matrix(0, -0.0533294, -0.0533294, 0, -1.494475, -4.117412)"/>
<path fill-rule="nonzero" fill="rgb(100%, 100%, 100%)" fill-opacity="1" d="M 6.980469 11.402344 L 10 16.636719 L 13.019531 11.402344 Z M 6.980469 11.402344 "/>
</svg>
